<?xml version="1.0" encoding="utf-8"?>
<!-- Generator: Adobe Illustrator 16.0.0, SVG Export Plug-In . SVG Version: 6.00 Build 0)  -->
<!DOCTYPE svg PUBLIC "-//W3C//DTD SVG 1.1//EN" "http://www.w3.org/Graphics/SVG/1.1/DTD/svg11.dtd">
<svg version="1.1" id="Layer_1" xmlns="http://www.w3.org/2000/svg" xmlns:xlink="http://www.w3.org/1999/xlink" x="0px" y="0px"
	 width="500px" height="500px" viewBox="0 0 500 500" enable-background="new 0 0 500 500" xml:space="preserve">
<g>
	<linearGradient id="SVGID_1_" gradientUnits="userSpaceOnUse" x1="122.2207" y1="61.9814" x2="376.1871" y2="438.5022">
		<stop  offset="0" style="stop-color:#66C190"/>
		<stop  offset="1" style="stop-color:#94CE8F"/>
	</linearGradient>
	<path fill="url(#SVGID_1_)" d="M468.854,363.873c0,7.252-5.138,16.152-11.419,19.778l-196.812,113.63
		c-6.282,3.626-16.558,3.626-22.839,0L40.971,383.651c-6.281-3.626-11.419-12.526-11.419-19.778V136.61
		c0-7.252,5.138-16.153,11.419-19.778L237.784,3.202c6.282-3.626,16.557-3.626,22.839,0l196.812,113.63
		c6.281,3.625,11.419,12.526,11.419,19.778V363.873z"/>
	<g>
		<g>
			<g>
				
					<path fill="none" stroke="#FFFFFF" stroke-width="8" stroke-linecap="round" stroke-linejoin="round" stroke-miterlimit="10" d="
					M100.796,331.216"/>
			</g>
		</g>
		<g>
			<g>
				<path fill="#FFFFFF" d="M305.832,341.764c-3.448,0-6.717-1.692-8.699-4.584L195.469,188.859l-53.125,145.964
					c-1.517,4.167-5.478,6.94-9.913,6.94h-31.636c-5.825,0-10.548-4.724-10.548-10.548c0-5.826,4.723-10.55,10.548-10.55h24.25
					l57.613-158.298c1.352-3.714,4.667-6.361,8.587-6.857c3.916-0.5,7.791,1.24,10.026,4.5l101.666,148.321l53.129-145.964
					c1.518-4.167,5.479-6.941,9.913-6.941h31.631c5.825,0,10.549,4.723,10.549,10.549c0,5.825-4.724,10.548-10.549,10.548h-24.244
					l-57.619,158.299c-1.352,3.713-4.667,6.361-8.589,6.857C306.717,341.735,306.272,341.764,305.832,341.764z"/>
			</g>
		</g>
		<g>
			<g>
				
					<path fill="none" stroke="#FFFFFF" stroke-width="8" stroke-linecap="round" stroke-linejoin="round" stroke-miterlimit="10" d="
					M397.61,165.976"/>
			</g>
		</g>
	</g>
</g>
</svg>
